<svg xmlns="http://www.w3.org/2000/svg" width="744" height="434" viewBox="0 0 744 434" font-family="Segoe UI, sans-serif">
<rect x="0" y="0" width="744" height="434" fill="#1e1e2e"/>
<defs><marker id="arrow-dark" viewBox="0 0 10 10" refX="9" refY="5" markerWidth="7" markerHeight="7" orient="auto-start-reverse"><path d="M0,0 L10,5 L0,10 z" fill="#8888b0"/></marker></defs>
<rect x="10" y="20" width="704" height="102" rx="8" fill="#2a2a3d" stroke="#4a4a63"/>
<text x="20" y="42" fill="#e8e8f0" font-size="15" font-weight="600">Coupon — 쿠폰 연동</text>
<rect x="10" y="158" width="472" height="102" rx="8" fill="#2a2a3d" stroke="#4a4a63"/>
<text x="20" y="180" fill="#e8e8f0" font-size="15" font-weight="600">부트스트랩</text>
<rect x="10" y="296" width="704" height="102" rx="8" fill="#2a2a3d" stroke="#4a4a63"/>
<text x="20" y="318" fill="#e8e8f0" font-size="15" font-weight="600">공용 인프라 · 외부 연동</text>
<line x1="120" y1="216" x2="584" y2="78" stroke="#8888b0" stroke-width="1.5" marker-end="url(#arrow-dark)"/>
<text x="352" y="143" fill="#8888b0" font-size="11" text-anchor="middle">ensureCouponRedemptionIndexes(db)</text>
<line x1="120" y1="216" x2="352" y2="78" stroke="#8888b0" stroke-width="1.5" marker-end="url(#arrow-dark)"/>
<text x="236" y="143" fill="#8888b0" font-size="11" text-anchor="middle">cron(매일 새벽4시) reconcileUnconfirmedCoupons</text>
<line x1="352" y1="216" x2="120" y2="78" stroke="#8888b0" stroke-width="1.5" marker-end="url(#arrow-dark)"/>
<text x="236" y="143" fill="#8888b0" font-size="11" text-anchor="middle">app.use</text>
<line x1="120" y1="78" x2="352" y2="78" stroke="#8888b0" stroke-width="1.5" marker-end="url(#arrow-dark)"/>
<line x1="352" y1="78" x2="584" y2="354" stroke="#8888b0" stroke-width="1.5" marker-end="url(#arrow-dark)"/>
<text x="468" y="212" fill="#8888b0" font-size="11" text-anchor="middle">reserve/confirm</text>
<line x1="352" y1="78" x2="584" y2="78" stroke="#8888b0" stroke-width="1.5" marker-end="url(#arrow-dark)"/>
<text x="468" y="74" fill="#8888b0" font-size="11" text-anchor="middle">recordReserved/markMailGranted/markConfirmed</text>
<line x1="352" y1="78" x2="352" y2="354" stroke="#8888b0" stroke-width="1.5" marker-end="url(#arrow-dark)"/>
<line x1="584" y1="78" x2="120" y2="354" stroke="#8888b0" stroke-width="1.5" marker-end="url(#arrow-dark)"/>
<rect x="20" y="192" width="200" height="48" rx="6" fill="#31314a" stroke="#6c6ca0" stroke-width="1"/>
<text x="120" y="210" fill="#e8e8f0" font-size="12" font-weight="600" text-anchor="middle">index.ts (프로세스 부트스트랩)</text>
<text x="120" y="226" fill="#8888b0" font-size="10" text-anchor="middle">entrypoint</text>
<rect x="252" y="192" width="200" height="48" rx="6" fill="#31314a" stroke="#6c6ca0" stroke-width="1"/>
<text x="352" y="210" fill="#e8e8f0" font-size="12" font-weight="600" text-anchor="middle">server.ts (createServer, 라우트 조립)</text>
<text x="352" y="226" fill="#8888b0" font-size="10" text-anchor="middle">entrypoint</text>
<rect x="20" y="330" width="200" height="48" rx="6" fill="#31314a" stroke="#6c6ca0" stroke-width="1"/>
<text x="120" y="348" fill="#e8e8f0" font-size="12" font-weight="600" text-anchor="middle">MongoDB 앱 DB 클라이언트</text>
<text x="120" y="364" fill="#8888b0" font-size="10" text-anchor="middle">infra</text>
<rect x="252" y="330" width="200" height="48" rx="6" fill="#31314a" stroke="#6c6ca0" stroke-width="1"/>
<text x="352" y="348" fill="#e8e8f0" font-size="12" font-weight="600" text-anchor="middle">writeAuditLog 공용 헬퍼</text>
<text x="352" y="364" fill="#8888b0" font-size="10" text-anchor="middle">infra</text>
<rect x="484" y="330" width="200" height="48" rx="6" fill="#31314a" stroke="#6c6ca0" stroke-width="1"/>
<text x="584" y="348" fill="#e8e8f0" font-size="12" font-weight="600" text-anchor="middle">coupon_platform S2S API(reserve/confirm)</text>
<text x="584" y="364" fill="#8888b0" font-size="10" text-anchor="middle">external</text>
<rect x="20" y="54" width="200" height="48" rx="6" fill="#31314a" stroke="#6c6ca0" stroke-width="1"/>
<text x="120" y="72" fill="#e8e8f0" font-size="12" font-weight="600" text-anchor="middle">couponRoutes(POST /coupon/redeem)</text>
<text x="120" y="88" fill="#8888b0" font-size="10" text-anchor="middle">route</text>
<rect x="252" y="54" width="200" height="48" rx="6" fill="#31314a" stroke="#6c6ca0" stroke-width="1"/>
<text x="352" y="72" fill="#e8e8f0" font-size="12" font-weight="600" text-anchor="middle">couponService(redeemCoupon/reconcileUnconfirmedCoupons)</text>
<text x="352" y="88" fill="#8888b0" font-size="10" text-anchor="middle">service</text>
<rect x="484" y="54" width="200" height="48" rx="6" fill="#31314a" stroke="#6c6ca0" stroke-width="1"/>
<text x="584" y="72" fill="#e8e8f0" font-size="12" font-weight="600" text-anchor="middle">couponRedemptionStore(player_coupon, reserve→mail→confirm 상태 기록)</text>
<text x="584" y="88" fill="#8888b0" font-size="10" text-anchor="middle">repository</text>
</svg>